<?xml version="1.0" encoding="UTF-8" standalone="no"?><svg xmlns="http://www.w3.org/2000/svg" xmlns:xlink="http://www.w3.org/1999/xlink" contentScriptType="application/ecmascript" contentStyleType="text/css" height="54px" preserveAspectRatio="none" style="width:221px;height:54px;" version="1.1" viewBox="0 0 221 54" width="221px" zoomAndPan="magnify"><defs><filter height="300%" id="fy2aoko" width="300%" x="-1" y="-1"><feGaussianBlur result="blurOut" stdDeviation="2.0"/><feColorMatrix in="blurOut" result="blurOut2" type="matrix" values="0 0 0 0 0 0 0 0 0 0 0 0 0 0 0 0 0 0 .4 0"/><feOffset dx="4.0" dy="4.0" in="blurOut2" result="blurOut3"/><feBlend in="SourceGraphic" in2="blurOut3" mode="normal"/></filter></defs><g><!--entity Client--><rect fill="#FEFECE" filter="url(#fy2aoko)" height="37.6094" style="stroke: #A80036; stroke-width: 1.5;" width="56" x="6" y="8"/><rect fill="#FEFECE" height="5" style="stroke: #A80036; stroke-width: 1.5;" width="10" x="1" y="13"/><rect fill="#FEFECE" height="5" style="stroke: #A80036; stroke-width: 1.5;" width="10" x="1" y="35.6094"/><text fill="#000000" font-family="sans-serif" font-size="14" lengthAdjust="spacingAndGlyphs" textLength="36" x="16" y="32.5332">Client</text><!--entity Server--><rect fill="#FEFECE" filter="url(#fy2aoko)" height="37.6094" style="stroke: #A80036; stroke-width: 1.5;" width="62" x="150" y="8"/><rect fill="#FEFECE" height="5" style="stroke: #A80036; stroke-width: 1.5;" width="10" x="145" y="13"/><rect fill="#FEFECE" height="5" style="stroke: #A80036; stroke-width: 1.5;" width="10" x="145" y="35.6094"/><text fill="#000000" font-family="sans-serif" font-size="14" lengthAdjust="spacingAndGlyphs" textLength="42" x="160" y="32.5332">Server</text><!--entity CS--><ellipse cx="106" cy="27" fill="#FEFECE" filter="url(#fy2aoko)" rx="8" ry="8" style="stroke: #A80036; stroke-width: 2.0;"/><path d="M62.125,27 C70.3292,27 78.5335,27 86.7377,27 " fill="none" style="stroke: #A80036; stroke-width: 1.0;"/><path d="M93.667,18.5427 A9,9 0 0 0 93.6668 35.4572" fill="none" style="stroke: #A80036; stroke-width: 1.5;"/><path d="M115.082,27 C126.669,27 138.256,27 149.843,27 " fill="none" style="stroke: #A80036; stroke-width: 1.0;"/></g></svg>